<svg xmlns="http://www.w3.org/2000/svg" width="881.427" height="736.918" viewBox="0 0 881.427 736.918">
  <g id="Group_2302" data-name="Group 2302" transform="translate(82.618 -388.715)">
    <path id="Path_15" data-name="Path 15" d="M17.128,268.741C-20.2,349.779,5.514,454.29,74.567,502.176c38,26.352,83.281,30.992,123.054,12.611l.107-.067q4.324-2,8.533-4.344c27.661-12.809,120.148-45.84,248.521,11.363,19.657,8.763,34.772,13.249,46.211,14.445,115.95,43.466,235.773-32.751,267.626-170.234,26.849-115.869-17.28-241.69-106.437-303.493-18.7-12.96-37.843-27.2-57.636-33.19,0,0-255.043-137.533-544.908,183.674C41.96,227.221,27.416,246.314,17.128,268.741Z" transform="matrix(1, 0.017, -0.017, 1, 21.99, 418.951)" fill="#fafafb" stroke="rgba(0,0,0,0)" stroke-width="1"/>
    <path id="Shape" d="M1.686,229.695C-10.366,141.882,43.48,43.916,121.956,10.88c43.186-18.179,87.046-13.4,119.19,13l.081.089q3.493,2.87,6.782,6.058c22.349,18.383,99.857,70.163,236.712,40.192,20.955-4.592,36.432-5.9,47.518-4.713C653.52,46.54,744.44,146.656,735.315,289.118,727.626,409.184,650.43,524.4,549.11,567.031c-21.244,8.94-43.278,19.053-63.576,20.875,0,0-278.676,83.149-459.761-294.27C13.222,275.865,4.981,253.987,1.686,229.695Z" transform="matrix(0.978, 0.208, -0.208, 0.978, 41.85, 389.333)" fill="none" stroke="#accaf0" stroke-miterlimit="10" stroke-width="1" stroke-dasharray="5" opacity="0.52" style="isolation: isolate"/>
  </g>
</svg>
